<?xml version="1.0" standalone="yes"?>

<svg version="1.1" viewBox="0.0 0.0 253.8031496062992 100.0" fill="none" stroke="none" stroke-linecap="square" stroke-miterlimit="10" xmlns="http://www.w3.org/2000/svg" xmlns:xlink="http://www.w3.org/1999/xlink"><clipPath id="p.0"><path d="m0 0l253.80315 0l0 100.0l-253.80315 0l0 -100.0z" clip-rule="nonzero"></path></clipPath><g clip-path="url(#p.0)"><path fill="#000000" fill-opacity="0.0" d="m0 0l253.80315 0l0 100.0l-253.80315 0z" fill-rule="nonzero"></path><path fill="#000000" fill-opacity="0.0" d="m5.6377954 5.3622046l253.79527 0l0 92.15748l-253.79527 0z" fill-rule="nonzero"></path><path fill="#000000" d="m62.325294 75.80221l-6.1875 0l0 -40.09375l-12.9375 27.28125l-3.6875 0l-12.84375 -27.28125l0 40.09375l-5.78125 0l0 -46.53125l8.4375 0l12.40625 25.90625l12.0 -25.90625l8.59375 0l0 46.53125zm41.25 -16.84375l-25.71875 0q0 3.21875 0.96875 5.609375q0.96875 2.390625 2.65625 3.921875q1.625 1.5 3.859375 2.25q2.234375 0.75 4.921875 0.75q3.5625 0 7.171875 -1.421875q3.609375 -1.421875 5.140625 -2.796875l0.3125 0l0 6.40625q-2.96875 1.25 -6.0625 2.09375q-3.09375 0.84375 -6.5 0.84375q-8.6875 0 -13.5625 -4.703125q-4.875 -4.703125 -4.875 -13.359375q0 -8.5625 4.671875 -13.59375q4.671875 -5.03125 12.296875 -5.03125q7.0625 0 10.890625 4.125q3.828125 4.125 3.828125 11.71875l0 3.1875zm-5.71875 -4.5q-0.03125 -4.625 -2.328125 -7.15625q-2.296875 -2.53125 -6.984375 -2.53125q-4.71875 0 -7.515625 2.78125q-2.796875 2.78125 -3.171875 6.90625l20.0 0zm53.906258 17.90625q-3.8125 1.75 -8.328125 3.046875q-4.515625 1.296875 -8.734375 1.296875q-5.4375 0 -9.968758 -1.5q-4.53125 -1.5 -7.71875 -4.5q-3.21875 -3.03125 -4.96875 -7.578125q-1.75 -4.546875 -1.75 -10.640625q0 -11.15625 6.515625 -17.609375q6.515625 -6.453125 17.890633 -6.453125q3.96875 0 8.109375 0.953125q4.140625 0.953125 8.921875 3.234375l0 7.34375l-0.5625 0q-0.96875 -0.75 -2.8125 -1.96875q-1.84375 -1.21875 -3.625 -2.03125q-2.15625 -0.96875 -4.890625 -1.609375q-2.734375 -0.640625 -6.203125 -0.640625q-7.8125076 0 -12.359383 5.015625q-4.546875 5.015625 -4.546875 13.578125q0 9.03125 4.75 14.046875q4.75 5.015625 12.937508 5.015625q3.0 0 5.984375 -0.59375q2.984375 -0.59375 5.234375 -1.53125l0 -11.40625l-12.46875 0l0 -5.4375l18.59375 0l0 19.96875zm47.5 3.4375l-6.59375 0l-4.5625 -12.96875l-20.125 0l-4.5625 12.96875l-6.28125 0l16.9375 -46.53125l8.25 0l16.9375 46.53125zm-13.0625 -18.28125l-8.15625 -22.84375l-8.1875 22.84375l16.34375 0zm50.5625 -14.1875q0 3.09375 -1.078125 5.734375q-1.078125 2.640625 -3.015625 4.578125q-2.40625 2.40625 -5.6875 3.609375q-3.28125 1.203125 -8.28125 1.203125l-6.1875 0l0 17.34375l-6.1875 0l0 -46.53125l12.625 0q4.1875 0 7.09375 0.703125q2.90625 0.703125 5.15625 2.203125q2.65625 1.78125 4.109375 4.4375q1.453125 2.65625 1.453125 6.71875zm-6.4375 0.15625q0 -2.40625 -0.84375 -4.1875q-0.84375 -1.78125 -2.5625 -2.90625q-1.5 -0.96875 -3.421875 -1.390625q-1.921875 -0.421875 -4.859375 -0.421875l-6.125 0l0 18.59375l5.21875 0q3.75 0 6.09375 -0.671875q2.34375 -0.671875 3.8125 -2.140625q1.46875 -1.5 2.078125 -3.15625q0.609375 -1.65625 0.609375 -3.71875z" fill-rule="nonzero"></path></g></svg>

